<svg width="157" height="16" viewBox="0 0 157 16" fill="none" xmlns="http://www.w3.org/2000/svg">
<rect width="157" height="16" fill="white"/>
<path d="M11.816 6.448C11.928 6.448 12.048 6.456 12.176 6.472C12.304 6.48 12.416 6.496 12.512 6.52L12.392 7.492C12.296 7.468 12.188 7.448 12.068 7.432C11.956 7.416 11.848 7.408 11.744 7.408C11.512 7.408 11.292 7.46 11.084 7.564C10.876 7.668 10.688 7.816 10.52 8.008C10.36 8.192 10.232 8.416 10.136 8.68C10.04 8.944 9.992 9.24 9.992 9.568V13H8.948V6.568H9.8L9.92 7.744H9.968C10.096 7.504 10.248 7.288 10.424 7.096C10.608 6.896 10.816 6.74 11.048 6.628C11.28 6.508 11.536 6.448 11.816 6.448ZM17.6075 11.224C17.6075 11.64 17.5075 11.988 17.3075 12.268C17.1155 12.548 16.8395 12.76 16.4795 12.904C16.1195 13.048 15.6875 13.12 15.1835 13.12C14.7595 13.12 14.3915 13.084 14.0795 13.012C13.7755 12.94 13.5075 12.84 13.2755 12.712V11.752C13.5235 11.88 13.8195 12 14.1635 12.112C14.5075 12.216 14.8555 12.268 15.2075 12.268C15.6955 12.268 16.0475 12.184 16.2635 12.016C16.4875 11.84 16.5995 11.608 16.5995 11.32C16.5995 11.16 16.5555 11.016 16.4675 10.888C16.3875 10.76 16.2395 10.632 16.0235 10.504C15.8155 10.376 15.5115 10.232 15.1115 10.072C14.7275 9.912 14.3955 9.752 14.1155 9.592C13.8435 9.432 13.6315 9.24 13.4795 9.016C13.3355 8.792 13.2635 8.504 13.2635 8.152C13.2635 7.608 13.4715 7.188 13.8875 6.892C14.3115 6.596 14.8635 6.448 15.5435 6.448C15.9115 6.448 16.2555 6.488 16.5755 6.568C16.8955 6.64 17.1995 6.744 17.4875 6.88L17.1395 7.72C16.9715 7.64 16.7955 7.572 16.6115 7.516C16.4275 7.452 16.2395 7.404 16.0475 7.372C15.8635 7.332 15.6755 7.312 15.4835 7.312C15.0915 7.312 14.7915 7.384 14.5835 7.528C14.3755 7.664 14.2715 7.852 14.2715 8.092C14.2715 8.268 14.3195 8.42 14.4155 8.548C14.5115 8.676 14.6675 8.8 14.8835 8.92C15.1075 9.032 15.4115 9.164 15.7955 9.316C16.1795 9.468 16.5075 9.624 16.7795 9.784C17.0515 9.944 17.2555 10.14 17.3915 10.372C17.5355 10.596 17.6075 10.88 17.6075 11.224ZM25.7453 6.448C26.4333 6.448 26.9453 6.636 27.2813 7.012C27.6173 7.38 27.7853 7.98 27.7853 8.812V13H26.7533V8.86C26.7533 8.356 26.6533 7.976 26.4533 7.72C26.2613 7.464 25.9573 7.336 25.5413 7.336C24.9653 7.336 24.5533 7.516 24.3053 7.876C24.0653 8.236 23.9453 8.76 23.9453 9.448V13H22.9013V8.86C22.9013 8.524 22.8573 8.244 22.7693 8.02C22.6813 7.788 22.5493 7.616 22.3733 7.504C22.1973 7.392 21.9693 7.336 21.6893 7.336C21.2893 7.336 20.9733 7.428 20.7413 7.612C20.5093 7.788 20.3453 8.048 20.2493 8.392C20.1533 8.736 20.1053 9.16 20.1053 9.664V13H19.0613V6.568H19.9013L20.0573 7.444H20.1173C20.2453 7.22 20.4013 7.036 20.5853 6.892C20.7693 6.74 20.9733 6.628 21.1973 6.556C21.4213 6.484 21.6533 6.448 21.8933 6.448C22.3573 6.448 22.7453 6.536 23.0573 6.712C23.3693 6.888 23.5973 7.16 23.7413 7.528H23.8133C24.0133 7.16 24.2853 6.888 24.6293 6.712C24.9813 6.536 25.3533 6.448 25.7453 6.448ZM34.9233 11.056H33.7593V13H32.7513V11.056H28.9233V10.156L32.6913 4.384H33.7593V10.108H34.9233V11.056ZM32.7513 7.408C32.7513 7.2 32.7513 7.012 32.7513 6.844C32.7593 6.668 32.7673 6.504 32.7753 6.352C32.7833 6.2 32.7873 6.056 32.7873 5.92C32.7953 5.776 32.8033 5.64 32.8113 5.512H32.7633C32.6993 5.664 32.6233 5.828 32.5353 6.004C32.4473 6.18 32.3633 6.328 32.2833 6.448L29.9313 10.108H32.7513V7.408ZM41.0206 8.092C41.0206 8.58 40.9886 9.068 40.9246 9.556C40.8606 10.036 40.7486 10.492 40.5886 10.924C40.4366 11.348 40.2206 11.728 39.9406 12.064C39.6606 12.392 39.3046 12.652 38.8726 12.844C38.4406 13.028 37.9166 13.12 37.3006 13.12C37.1486 13.12 36.9726 13.108 36.7726 13.084C36.5726 13.068 36.4086 13.04 36.2806 13V12.1C36.4166 12.148 36.5726 12.188 36.7486 12.22C36.9326 12.244 37.1046 12.256 37.2646 12.256C37.7926 12.256 38.2246 12.164 38.5606 11.98C38.9046 11.796 39.1766 11.548 39.3766 11.236C39.5766 10.916 39.7206 10.548 39.8086 10.132C39.9046 9.708 39.9606 9.264 39.9766 8.8H39.9046C39.7926 8.984 39.6486 9.152 39.4726 9.304C39.3046 9.456 39.0966 9.576 38.8486 9.664C38.6086 9.752 38.3246 9.796 37.9966 9.796C37.5406 9.796 37.1366 9.696 36.7846 9.496C36.4406 9.288 36.1726 8.992 35.9806 8.608C35.7886 8.224 35.6926 7.756 35.6926 7.204C35.6926 6.604 35.7966 6.088 36.0046 5.656C36.2206 5.224 36.5206 4.892 36.9046 4.66C37.2966 4.428 37.7526 4.312 38.2726 4.312C38.6566 4.312 39.0166 4.392 39.3526 4.552C39.6886 4.704 39.9806 4.936 40.2286 5.248C40.4766 5.56 40.6686 5.952 40.8046 6.424C40.9486 6.896 41.0206 7.452 41.0206 8.092ZM38.2846 5.2C37.8206 5.2 37.4446 5.364 37.1566 5.692C36.8686 6.02 36.7246 6.52 36.7246 7.192C36.7246 7.736 36.8486 8.168 37.0966 8.488C37.3446 8.8 37.7246 8.956 38.2366 8.956C38.5886 8.956 38.8926 8.88 39.1486 8.728C39.4126 8.576 39.6126 8.38 39.7486 8.14C39.8926 7.9 39.9646 7.652 39.9646 7.396C39.9646 7.14 39.9286 6.884 39.8566 6.628C39.7846 6.364 39.6766 6.124 39.5326 5.908C39.3966 5.692 39.2246 5.52 39.0166 5.392C38.8086 5.264 38.5646 5.2 38.2846 5.2ZM47.4899 8.704C47.4899 9.4 47.4379 10.02 47.3339 10.564C47.2379 11.108 47.0819 11.572 46.8659 11.956C46.6579 12.332 46.3819 12.62 46.0379 12.82C45.6939 13.02 45.2819 13.12 44.8019 13.12C44.1939 13.12 43.6899 12.944 43.2899 12.592C42.8979 12.24 42.6059 11.736 42.4139 11.08C42.2219 10.416 42.1259 9.624 42.1259 8.704C42.1259 7.776 42.2139 6.984 42.3899 6.328C42.5659 5.672 42.8499 5.172 43.2419 4.828C43.6339 4.476 44.1539 4.3 44.8019 4.3C45.4099 4.3 45.9099 4.476 46.3019 4.828C46.7019 5.172 46.9979 5.672 47.1899 6.328C47.3899 6.984 47.4899 7.776 47.4899 8.704ZM43.1699 8.704C43.1699 9.488 43.2219 10.14 43.3259 10.66C43.4379 11.18 43.6139 11.572 43.8539 11.836C44.0939 12.092 44.4099 12.22 44.8019 12.22C45.1939 12.22 45.5099 12.092 45.7499 11.836C45.9899 11.58 46.1619 11.192 46.2659 10.672C46.3779 10.144 46.4339 9.488 46.4339 8.704C46.4339 7.92 46.3779 7.272 46.2659 6.76C46.1619 6.24 45.9899 5.852 45.7499 5.596C45.5099 5.332 45.1939 5.2 44.8019 5.2C44.4099 5.2 44.0939 5.332 43.8539 5.596C43.6139 5.852 43.4379 6.24 43.3259 6.76C43.2219 7.272 43.1699 7.92 43.1699 8.704ZM51.1513 7.744C51.6953 7.744 52.1673 7.844 52.5673 8.044C52.9753 8.244 53.2913 8.532 53.5153 8.908C53.7393 9.276 53.8513 9.728 53.8513 10.264C53.8513 10.856 53.7313 11.368 53.4913 11.8C53.2513 12.224 52.9033 12.552 52.4473 12.784C51.9993 13.008 51.4553 13.12 50.8153 13.12C50.3993 13.12 50.0113 13.08 49.6513 13C49.2913 12.92 48.9833 12.804 48.7273 12.652V11.656C48.9993 11.832 49.3273 11.972 49.7113 12.076C50.1033 12.172 50.4753 12.22 50.8273 12.22C51.2193 12.22 51.5593 12.156 51.8473 12.028C52.1433 11.892 52.3713 11.688 52.5313 11.416C52.6993 11.136 52.7833 10.788 52.7833 10.372C52.7833 9.812 52.6233 9.384 52.3033 9.088C51.9833 8.784 51.4793 8.632 50.7913 8.632C50.5753 8.632 50.3313 8.652 50.0593 8.692C49.7953 8.732 49.5833 8.772 49.4233 8.812L48.9193 8.476L49.2193 4.432H53.2873V5.392H50.1193L49.9273 7.876C50.0633 7.852 50.2353 7.824 50.4433 7.792C50.6513 7.76 50.8873 7.744 51.1513 7.744ZM57.5606 13.12C56.8166 13.12 56.2166 12.844 55.7606 12.292C55.3126 11.732 55.0886 10.9 55.0886 9.796C55.0886 8.692 55.3166 7.86 55.7726 7.3C56.2286 6.732 56.8286 6.448 57.5726 6.448C57.8846 6.448 58.1566 6.492 58.3886 6.58C58.6206 6.66 58.8206 6.772 58.9886 6.916C59.1646 7.06 59.3126 7.22 59.4326 7.396H59.5046C59.4966 7.292 59.4806 7.14 59.4566 6.94C59.4406 6.732 59.4326 6.568 59.4326 6.448V3.88H60.4766V13H59.6366L59.4806 12.136H59.4326C59.3126 12.32 59.1646 12.488 58.9886 12.64C58.8206 12.784 58.6166 12.9 58.3766 12.988C58.1446 13.076 57.8726 13.12 57.5606 13.12ZM57.7526 12.244C58.3766 12.244 58.8126 12.06 59.0606 11.692C59.3166 11.316 59.4446 10.752 59.4446 10V9.808C59.4446 9.008 59.3246 8.396 59.0846 7.972C58.8446 7.54 58.3966 7.324 57.7406 7.324C57.2126 7.324 56.8166 7.552 56.5526 8.008C56.2966 8.456 56.1686 9.06 56.1686 9.82C56.1686 10.588 56.2966 11.184 56.5526 11.608C56.8166 12.032 57.2166 12.244 57.7526 12.244ZM64.8098 13.12C64.2658 13.12 63.7858 13.004 63.3698 12.772C62.9538 12.54 62.6258 12.18 62.3858 11.692C62.1538 11.204 62.0378 10.58 62.0378 9.82C62.0378 9.028 62.1618 8.384 62.4098 7.888C62.6578 7.392 62.9938 7.028 63.4178 6.796C63.8498 6.564 64.3378 6.448 64.8818 6.448C65.1938 6.448 65.4938 6.484 65.7818 6.556C66.0778 6.62 66.3178 6.7 66.5018 6.796L66.1778 7.672C65.9938 7.6 65.7778 7.532 65.5298 7.468C65.2898 7.404 65.0658 7.372 64.8578 7.372C64.4658 7.372 64.1418 7.464 63.8858 7.648C63.6298 7.832 63.4378 8.104 63.3098 8.464C63.1818 8.824 63.1178 9.272 63.1178 9.808C63.1178 10.32 63.1818 10.756 63.3098 11.116C63.4378 11.476 63.6258 11.748 63.8738 11.932C64.1298 12.116 64.4418 12.208 64.8098 12.208C65.1378 12.208 65.4298 12.172 65.6858 12.1C65.9418 12.028 66.1778 11.94 66.3938 11.836V12.772C66.1858 12.884 65.9578 12.968 65.7098 13.024C65.4618 13.088 65.1618 13.12 64.8098 13.12ZM76.367 8.716C76.367 9.084 76.327 9.444 76.247 9.796C76.167 10.148 76.043 10.468 75.875 10.756C75.715 11.036 75.511 11.264 75.263 11.44C75.023 11.608 74.739 11.692 74.411 11.692C74.067 11.692 73.795 11.588 73.595 11.38C73.395 11.164 73.271 10.92 73.223 10.648H73.163C73.035 10.944 72.839 11.192 72.575 11.392C72.311 11.592 71.979 11.692 71.579 11.692C70.995 11.692 70.547 11.488 70.235 11.08C69.923 10.672 69.767 10.132 69.767 9.46C69.767 8.932 69.863 8.468 70.055 8.068C70.255 7.66 70.535 7.34 70.895 7.108C71.263 6.876 71.691 6.76 72.179 6.76C72.515 6.76 72.843 6.792 73.163 6.856C73.491 6.912 73.743 6.976 73.919 7.048L73.811 9.484C73.803 9.628 73.799 9.732 73.799 9.796C73.799 9.852 73.799 9.892 73.799 9.916C73.799 10.332 73.867 10.608 74.003 10.744C74.139 10.88 74.295 10.948 74.471 10.948C74.703 10.948 74.899 10.848 75.059 10.648C75.219 10.44 75.339 10.168 75.419 9.832C75.507 9.488 75.551 9.112 75.551 8.704C75.551 7.96 75.411 7.332 75.131 6.82C74.851 6.3 74.467 5.904 73.979 5.632C73.491 5.36 72.935 5.224 72.311 5.224C71.671 5.224 71.103 5.332 70.607 5.548C70.119 5.764 69.707 6.068 69.371 6.46C69.043 6.852 68.791 7.316 68.615 7.852C68.447 8.38 68.363 8.964 68.363 9.604C68.363 10.388 68.491 11.056 68.747 11.608C69.011 12.152 69.395 12.568 69.899 12.856C70.411 13.136 71.035 13.276 71.771 13.276C72.219 13.276 72.655 13.22 73.079 13.108C73.511 13.004 73.887 12.888 74.207 12.76V13.576C73.887 13.72 73.523 13.836 73.115 13.924C72.707 14.02 72.259 14.068 71.771 14.068C70.883 14.068 70.119 13.892 69.479 13.54C68.847 13.188 68.363 12.684 68.027 12.028C67.691 11.364 67.523 10.568 67.523 9.64C67.523 8.896 67.631 8.208 67.847 7.576C68.071 6.936 68.387 6.384 68.795 5.92C69.211 5.448 69.715 5.084 70.307 4.828C70.899 4.564 71.567 4.432 72.311 4.432C72.903 4.432 73.443 4.532 73.931 4.732C74.427 4.924 74.855 5.208 75.215 5.584C75.583 5.952 75.867 6.4 76.067 6.928C76.267 7.456 76.367 8.052 76.367 8.716ZM70.679 9.484C70.679 9.996 70.771 10.368 70.955 10.6C71.147 10.832 71.403 10.948 71.723 10.948C72.139 10.948 72.439 10.78 72.623 10.444C72.815 10.108 72.923 9.672 72.947 9.136L73.019 7.636C72.915 7.604 72.791 7.576 72.647 7.552C72.503 7.528 72.351 7.516 72.191 7.516C71.823 7.516 71.527 7.612 71.303 7.804C71.079 7.996 70.919 8.244 70.823 8.548C70.727 8.844 70.679 9.156 70.679 9.484ZM84.6437 6.448C85.3317 6.448 85.8437 6.636 86.1797 7.012C86.5157 7.38 86.6837 7.98 86.6837 8.812V13H85.6517V8.86C85.6517 8.356 85.5517 7.976 85.3517 7.72C85.1597 7.464 84.8557 7.336 84.4397 7.336C83.8637 7.336 83.4517 7.516 83.2037 7.876C82.9637 8.236 82.8437 8.76 82.8437 9.448V13H81.7997V8.86C81.7997 8.524 81.7557 8.244 81.6677 8.02C81.5797 7.788 81.4477 7.616 81.2717 7.504C81.0957 7.392 80.8677 7.336 80.5877 7.336C80.1877 7.336 79.8717 7.428 79.6397 7.612C79.4077 7.788 79.2437 8.048 79.1477 8.392C79.0517 8.736 79.0037 9.16 79.0037 9.664V13H77.9597V6.568H78.7997L78.9557 7.444H79.0157C79.1437 7.22 79.2997 7.036 79.4837 6.892C79.6677 6.74 79.8717 6.628 80.0957 6.556C80.3197 6.484 80.5517 6.448 80.7917 6.448C81.2557 6.448 81.6437 6.536 81.9557 6.712C82.2677 6.888 82.4957 7.16 82.6397 7.528H82.7117C82.9117 7.16 83.1837 6.888 83.5277 6.712C83.8797 6.536 84.2517 6.448 84.6437 6.448ZM93.8338 9.772C93.8338 10.308 93.7658 10.784 93.6298 11.2C93.5018 11.608 93.3138 11.956 93.0658 12.244C92.8178 12.532 92.5178 12.752 92.1658 12.904C91.8138 13.048 91.4218 13.12 90.9898 13.12C90.5898 13.12 90.2178 13.048 89.8738 12.904C89.5378 12.752 89.2418 12.532 88.9858 12.244C88.7378 11.956 88.5458 11.608 88.4098 11.2C88.2738 10.784 88.2058 10.308 88.2058 9.772C88.2058 9.06 88.3178 8.46 88.5418 7.972C88.7738 7.476 89.1018 7.1 89.5258 6.844C89.9498 6.58 90.4498 6.448 91.0258 6.448C91.5778 6.448 92.0618 6.58 92.4778 6.844C92.9018 7.1 93.2338 7.476 93.4738 7.972C93.7138 8.46 93.8338 9.06 93.8338 9.772ZM89.2858 9.772C89.2858 10.276 89.3458 10.716 89.4658 11.092C89.5858 11.46 89.7738 11.744 90.0298 11.944C90.2858 12.144 90.6138 12.244 91.0138 12.244C91.4138 12.244 91.7418 12.144 91.9978 11.944C92.2538 11.744 92.4418 11.46 92.5618 11.092C92.6898 10.716 92.7538 10.276 92.7538 9.772C92.7538 9.26 92.6898 8.824 92.5618 8.464C92.4418 8.104 92.2538 7.828 91.9978 7.636C91.7418 7.436 91.4098 7.336 91.0018 7.336C90.4018 7.336 89.9658 7.552 89.6938 7.984C89.4218 8.416 89.2858 9.012 89.2858 9.772ZM99.216 13H94.764V12.304L97.98 7.384H94.956V6.568H99.144V7.36L95.964 12.184H99.216V13ZM107.284 6.448C107.972 6.448 108.484 6.636 108.82 7.012C109.156 7.38 109.324 7.98 109.324 8.812V13H108.292V8.86C108.292 8.356 108.192 7.976 107.992 7.72C107.8 7.464 107.496 7.336 107.08 7.336C106.504 7.336 106.092 7.516 105.844 7.876C105.604 8.236 105.484 8.76 105.484 9.448V13H104.44V8.86C104.44 8.524 104.396 8.244 104.308 8.02C104.22 7.788 104.088 7.616 103.912 7.504C103.736 7.392 103.508 7.336 103.228 7.336C102.828 7.336 102.512 7.428 102.28 7.612C102.048 7.788 101.884 8.048 101.788 8.392C101.692 8.736 101.644 9.16 101.644 9.664V13H100.6V6.568H101.44L101.596 7.444H101.656C101.784 7.22 101.94 7.036 102.124 6.892C102.308 6.74 102.512 6.628 102.736 6.556C102.96 6.484 103.192 6.448 103.432 6.448C103.896 6.448 104.284 6.536 104.596 6.712C104.908 6.888 105.136 7.16 105.28 7.528H105.352C105.552 7.16 105.824 6.888 106.168 6.712C106.52 6.536 106.892 6.448 107.284 6.448ZM113.498 6.46C114.234 6.46 114.782 6.632 115.142 6.976C115.51 7.32 115.694 7.868 115.694 8.62V13H114.938L114.734 12.088H114.686C114.51 12.32 114.33 12.516 114.146 12.676C113.97 12.828 113.762 12.94 113.522 13.012C113.29 13.084 113.002 13.12 112.658 13.12C112.298 13.12 111.974 13.052 111.686 12.916C111.398 12.78 111.17 12.572 111.002 12.292C110.834 12.004 110.75 11.644 110.75 11.212C110.75 10.572 110.986 10.08 111.458 9.736C111.93 9.384 112.658 9.192 113.642 9.16L114.662 9.124V8.74C114.662 8.204 114.554 7.832 114.338 7.624C114.13 7.416 113.83 7.312 113.438 7.312C113.126 7.312 112.826 7.364 112.538 7.468C112.258 7.564 111.99 7.676 111.734 7.804L111.41 7.012C111.682 6.86 111.998 6.732 112.358 6.628C112.718 6.516 113.098 6.46 113.498 6.46ZM113.786 9.892C113.05 9.924 112.538 10.052 112.25 10.276C111.97 10.5 111.83 10.816 111.83 11.224C111.83 11.584 111.93 11.848 112.13 12.016C112.33 12.184 112.59 12.268 112.91 12.268C113.406 12.268 113.822 12.12 114.158 11.824C114.494 11.52 114.662 11.056 114.662 10.432V9.856L113.786 9.892ZM118.613 6.568V13H117.569V6.568H118.613ZM118.097 4.156C118.257 4.156 118.397 4.212 118.517 4.324C118.637 4.428 118.697 4.596 118.697 4.828C118.697 5.052 118.637 5.22 118.517 5.332C118.397 5.444 118.257 5.5 118.097 5.5C117.929 5.5 117.785 5.444 117.665 5.332C117.545 5.22 117.485 5.052 117.485 4.828C117.485 4.596 117.545 4.428 117.665 4.324C117.785 4.212 117.929 4.156 118.097 4.156ZM121.555 13H120.511V3.88H121.555V13ZM123.308 12.352C123.308 12.056 123.376 11.848 123.512 11.728C123.648 11.608 123.816 11.548 124.016 11.548C124.216 11.548 124.388 11.608 124.532 11.728C124.676 11.848 124.748 12.056 124.748 12.352C124.748 12.64 124.676 12.848 124.532 12.976C124.388 13.104 124.216 13.168 124.016 13.168C123.816 13.168 123.648 13.104 123.512 12.976C123.376 12.848 123.308 12.64 123.308 12.352ZM128.935 13.12C128.391 13.12 127.911 13.004 127.495 12.772C127.079 12.54 126.751 12.18 126.511 11.692C126.279 11.204 126.163 10.58 126.163 9.82C126.163 9.028 126.287 8.384 126.535 7.888C126.783 7.392 127.119 7.028 127.543 6.796C127.975 6.564 128.463 6.448 129.007 6.448C129.319 6.448 129.619 6.484 129.907 6.556C130.203 6.62 130.443 6.7 130.627 6.796L130.303 7.672C130.119 7.6 129.903 7.532 129.655 7.468C129.415 7.404 129.191 7.372 128.983 7.372C128.591 7.372 128.267 7.464 128.011 7.648C127.755 7.832 127.563 8.104 127.435 8.464C127.307 8.824 127.243 9.272 127.243 9.808C127.243 10.32 127.307 10.756 127.435 11.116C127.563 11.476 127.751 11.748 127.999 11.932C128.255 12.116 128.567 12.208 128.935 12.208C129.263 12.208 129.555 12.172 129.811 12.1C130.067 12.028 130.303 11.94 130.519 11.836V12.772C130.311 12.884 130.083 12.968 129.835 13.024C129.587 13.088 129.287 13.12 128.935 13.12ZM137.24 9.772C137.24 10.308 137.172 10.784 137.036 11.2C136.908 11.608 136.72 11.956 136.472 12.244C136.224 12.532 135.924 12.752 135.572 12.904C135.22 13.048 134.828 13.12 134.396 13.12C133.996 13.12 133.624 13.048 133.28 12.904C132.944 12.752 132.648 12.532 132.392 12.244C132.144 11.956 131.952 11.608 131.816 11.2C131.68 10.784 131.612 10.308 131.612 9.772C131.612 9.06 131.724 8.46 131.948 7.972C132.18 7.476 132.508 7.1 132.932 6.844C133.356 6.58 133.856 6.448 134.432 6.448C134.984 6.448 135.468 6.58 135.884 6.844C136.308 7.1 136.64 7.476 136.88 7.972C137.12 8.46 137.24 9.06 137.24 9.772ZM132.692 9.772C132.692 10.276 132.752 10.716 132.872 11.092C132.992 11.46 133.18 11.744 133.436 11.944C133.692 12.144 134.02 12.244 134.42 12.244C134.82 12.244 135.148 12.144 135.404 11.944C135.66 11.744 135.848 11.46 135.968 11.092C136.096 10.716 136.16 10.276 136.16 9.772C136.16 9.26 136.096 8.824 135.968 8.464C135.848 8.104 135.66 7.828 135.404 7.636C135.148 7.436 134.816 7.336 134.408 7.336C133.808 7.336 133.372 7.552 133.1 7.984C132.828 8.416 132.692 9.012 132.692 9.772ZM145.476 6.448C146.164 6.448 146.676 6.636 147.012 7.012C147.348 7.38 147.516 7.98 147.516 8.812V13H146.484V8.86C146.484 8.356 146.384 7.976 146.184 7.72C145.992 7.464 145.688 7.336 145.272 7.336C144.696 7.336 144.284 7.516 144.036 7.876C143.796 8.236 143.676 8.76 143.676 9.448V13H142.632V8.86C142.632 8.524 142.588 8.244 142.5 8.02C142.412 7.788 142.28 7.616 142.104 7.504C141.928 7.392 141.7 7.336 141.42 7.336C141.02 7.336 140.704 7.428 140.472 7.612C140.24 7.788 140.076 8.048 139.98 8.392C139.884 8.736 139.836 9.16 139.836 9.664V13H138.792V6.568H139.632L139.788 7.444H139.848C139.976 7.22 140.132 7.036 140.316 6.892C140.5 6.74 140.704 6.628 140.928 6.556C141.152 6.484 141.384 6.448 141.624 6.448C142.088 6.448 142.476 6.536 142.788 6.712C143.1 6.888 143.328 7.16 143.472 7.528H143.544C143.744 7.16 144.016 6.888 144.36 6.712C144.712 6.536 145.084 6.448 145.476 6.448Z" fill="black"/>
</svg>
